<svg version="1.1" id="Layer_1" xmlns="http://www.w3.org/2000/svg" xmlns:xlink="http://www.w3.org/1999/xlink" x="0px" y="0px"
	 width="100%" viewBox="0 0 740 678" enable-background="new 0 0 740 678" xml:space="preserve">
<path fill="#000000" opacity="1.000000" stroke="none" 
	d="
M437.000000,679.000000 
	C291.333344,679.000000 146.166672,679.000000 1.000000,679.000000 
	C1.000000,453.000000 1.000000,227.000000 1.000000,1.000000 
	C247.666672,1.000000 494.333344,1.000000 741.000000,1.000000 
	C741.000000,227.000000 741.000000,453.000000 741.000000,679.000000 
	C639.833313,679.000000 538.666687,679.000000 437.000000,679.000000 
M535.013916,592.018433 
	C535.013916,592.018433 535.019287,592.091858 535.680786,592.042969 
	C536.146057,591.714111 536.611328,591.385254 537.012024,591.016785 
	C537.012024,591.016785 537.020020,591.092041 537.681396,591.043945 
	C538.146484,590.714844 538.611572,590.385742 539.012024,590.016724 
	C539.012024,590.016724 539.020508,590.092163 539.681885,590.045227 
	C540.146729,589.715637 540.611633,589.386108 541.012024,589.016785 
	C541.012024,589.016785 541.019653,589.092102 541.679565,589.043335 
	C542.145386,588.716492 542.611206,588.389587 543.006836,588.011108 
	C543.006836,588.011108 543.042847,588.090454 543.732117,588.060059 
	C544.560547,587.381348 545.388977,586.702637 546.854553,585.770508 
	C556.197876,578.720947 566.218811,572.394592 574.711975,564.437561 
	C585.166931,554.642578 593.869690,543.252502 601.279053,530.730042 
	C613.181763,510.613190 619.436829,489.188660 620.022888,465.017761 
	C619.958191,447.355316 619.893555,429.692871 620.002747,411.103241 
	C619.961731,402.419739 619.920715,393.736206 620.033447,384.153198 
	C619.974731,381.421692 619.916016,378.690186 619.940430,375.501678 
	C619.940430,375.501678 619.854248,375.045197 620.015137,374.114288 
	C619.965881,351.725494 619.916626,329.336700 619.974304,306.023132 
	C619.926514,296.005585 619.878784,285.988037 619.943481,275.043030 
	C619.920898,257.052307 619.898315,239.061569 619.975281,220.140793 
	C619.524353,214.082367 619.692810,207.898682 618.498047,201.990662 
	C615.706238,188.185379 610.563416,175.265030 603.607361,162.887772 
	C594.186401,146.124512 581.290161,132.417816 567.180176,119.866203 
	C555.201111,109.210220 541.513184,100.554260 526.357239,95.243370 
	C512.961731,90.549370 498.932220,87.664719 484.772095,83.178108 
	C457.188232,83.175461 429.604401,83.172813 401.094543,82.997948 
	C375.402893,83.053711 349.711273,83.109474 323.093201,82.997116 
	C292.413757,83.033463 261.734344,83.069809 230.274536,83.278481 
	C225.075653,84.500938 219.935364,86.271233 214.666000,86.834900 
	C202.692566,88.115707 191.973907,92.864212 181.326370,97.903702 
	C167.605545,104.397766 155.052124,112.757851 143.757538,122.860458 
	C137.280029,128.654358 130.863281,134.664261 125.332138,141.334015 
	C116.708763,151.732559 109.663223,163.275940 104.540375,175.845215 
	C99.548820,188.092361 95.322128,200.650894 95.071945,214.005325 
	C94.735176,231.982224 94.992188,249.970245 94.189331,268.322083 
	C94.127769,268.815430 94.012428,269.308807 94.012299,269.802155 
	C94.002403,307.748077 93.992683,345.693970 94.041733,383.639832 
	C94.043251,384.813446 94.661705,385.986267 94.938530,387.622192 
	C94.938530,387.622192 95.106918,388.056549 95.037048,388.984344 
	C95.077789,408.990692 95.118538,428.997040 95.017258,449.929230 
	C95.050781,455.596405 95.084312,461.263611 95.023651,467.844238 
	C95.333221,471.610870 95.794868,475.372314 95.924660,479.145111 
	C96.364273,491.924561 99.821671,504.034576 105.187119,515.423035 
	C114.479065,535.145752 126.235115,553.326965 143.138519,567.502258 
	C151.824600,574.786499 160.631927,582.204956 170.346985,587.929138 
	C195.458359,602.725037 223.304047,607.512878 253.004532,608.026306 
	C263.321899,607.962402 273.639282,607.898438 284.881927,608.027466 
	C296.231323,607.970398 307.580750,607.913330 319.863281,608.023071 
	C340.930511,607.965759 361.997742,607.908508 383.988708,607.952148 
	C396.334381,607.912537 408.680054,607.872925 421.953247,607.950256 
	C433.947510,607.930908 445.941742,607.911560 458.861847,607.978394 
	C482.252625,607.364990 505.440979,605.622375 527.607849,595.692444 
	C527.833496,595.487061 527.977051,595.234924 527.939087,594.987915 
	C527.939087,594.987915 527.974182,595.094421 528.704346,594.998718 
	C529.494202,594.685669 530.284058,594.372620 531.011841,594.017944 
	C531.011841,594.017944 531.011047,594.092773 531.716675,594.046204 
	C532.279297,593.710815 532.841980,593.375366 533.691223,593.165955 
	C533.691223,593.165955 533.967102,593.018005 534.550659,593.012390 
	C534.728027,592.689636 534.905457,592.366943 535.013916,592.018433 
z"/>
<path fill="#788292" opacity="1.000000" stroke="none" 
	d="
M94.994354,267.953491 
	C94.992188,249.970245 94.735176,231.982224 95.071945,214.005325 
	C95.322128,200.650894 99.548820,188.092361 104.540375,175.845215 
	C109.663223,163.275940 116.708763,151.732559 125.332138,141.334015 
	C130.863281,134.664261 137.280029,128.654358 143.757538,122.860458 
	C155.052124,112.757851 167.605545,104.397766 181.326370,97.903702 
	C191.973907,92.864212 202.692566,88.115707 214.666000,86.834900 
	C219.935364,86.271233 225.075653,84.500938 230.938629,83.506317 
	C262.417938,83.788544 293.233154,83.842941 324.511780,83.921875 
	C350.667969,83.913353 376.360748,83.880295 402.517395,83.882988 
	C430.381714,83.939560 457.782166,83.960388 485.182617,83.981216 
	C498.932220,87.664719 512.961731,90.549370 526.357239,95.243370 
	C541.513184,100.554260 555.201111,109.210220 567.180176,119.866203 
	C581.290161,132.417816 594.186401,146.124512 603.607361,162.887772 
	C610.563416,175.265030 615.706238,188.185379 618.498047,201.990662 
	C619.692810,207.898682 619.524353,214.082367 619.619873,220.885162 
	C619.197815,239.732254 619.131165,257.834961 619.034302,276.411682 
	C619.001404,282.682983 618.889404,288.482971 619.032349,294.276672 
	C619.136719,298.504700 619.576904,302.724457 619.867371,306.947906 
	C619.916626,329.336700 619.965881,351.725494 619.789429,374.662598 
	C619.364319,375.546448 619.462158,375.795715 619.857300,375.958679 
	C619.916016,378.690186 619.974731,381.421692 619.680420,384.907410 
	C619.240784,394.462891 619.154175,403.264130 619.062256,412.529846 
	C619.031189,429.085907 618.981140,445.177521 619.018982,461.268921 
	C619.022644,462.825287 619.571533,464.380310 619.867310,465.935974 
	C619.436829,489.188660 613.181763,510.613190 601.279053,530.730042 
	C593.869690,543.252502 585.166931,554.642578 574.711975,564.437561 
	C566.218811,572.394592 556.197876,578.720947 546.165588,585.821655 
	C544.665405,586.612000 543.854126,587.351257 543.042847,588.090454 
	C543.042847,588.090454 543.006836,588.011108 542.708374,587.921936 
	C541.946533,588.252563 541.483093,588.672302 541.019653,589.092041 
	C541.019653,589.092102 541.012024,589.016785 540.708496,588.931641 
	C539.943481,589.261719 539.481995,589.676941 539.020508,590.092163 
	C539.020508,590.092163 539.012024,590.016724 538.708862,589.932617 
	C537.943787,590.263000 537.481873,590.677551 537.020020,591.092041 
	C537.020020,591.092041 537.012024,591.016785 536.709106,590.932739 
	C535.943909,591.263123 535.481567,591.677490 535.019287,592.091858 
	C535.019287,592.091858 535.013916,592.018433 534.715332,591.983215 
	C534.266907,592.304688 534.117004,592.661316 533.967102,593.018005 
	C533.967102,593.018005 533.691223,593.165955 533.173462,593.006470 
	C532.107483,593.262207 531.559265,593.677490 531.011047,594.092773 
	C531.011047,594.092773 531.011841,594.017944 530.697693,593.916382 
	C529.580444,594.241333 528.777283,594.667908 527.974182,595.094421 
	C527.974182,595.094421 527.939087,594.987915 527.912964,595.159058 
	C527.612366,595.402527 527.373169,595.537354 527.169312,595.734497 
	C505.440979,605.622375 482.252625,607.364990 458.133911,607.613281 
	C445.290009,607.191223 433.174011,607.134277 420.586792,607.044128 
	C410.338745,607.011292 400.561462,606.954834 390.785614,607.050598 
	C388.209717,607.075806 385.638397,607.571533 383.064972,607.851196 
	C361.997742,607.908508 340.930511,607.965759 319.087341,607.672974 
	C306.839569,607.248840 295.367737,607.174744 283.436859,607.093384 
	C274.873810,607.044250 266.769196,606.935242 258.666107,607.004883 
	C256.471313,607.023743 254.281143,607.582642 252.088837,607.893677 
	C223.304047,607.512878 195.458359,602.725037 170.346985,587.929138 
	C160.631927,582.204956 151.824600,574.786499 143.138519,567.502258 
	C126.235115,553.326965 114.479065,535.145752 105.187119,515.423035 
	C99.821671,504.034576 96.364273,491.924561 95.924660,479.145111 
	C95.794868,475.372314 95.333221,471.610870 95.384659,467.115906 
	C95.800674,460.594604 95.855682,454.801605 95.944046,448.540527 
	C95.972382,429.474457 95.985809,410.876404 95.925484,392.278625 
	C95.920914,390.870392 95.392067,389.463867 95.106918,388.056549 
	C95.106918,388.056549 94.938530,387.622192 95.047546,386.917603 
	C95.102493,346.793182 95.048424,307.373322 94.994354,267.953491 
M157.409409,164.875275 
	C157.286392,165.280273 157.163376,165.685257 157.017075,166.018616 
	C157.017075,166.018616 157.090683,166.034531 156.371277,165.974365 
	C156.072586,166.344788 155.773880,166.715225 155.624420,167.755020 
	C150.422989,178.107666 145.032410,188.371582 140.113754,198.856888 
	C138.160904,203.019852 137.254517,207.673706 135.214905,212.493591 
	C134.478363,219.078461 133.114029,225.662094 133.101196,232.248367 
	C132.952759,308.492737 132.974365,384.737518 133.085068,460.981964 
	C133.092712,466.250031 134.168625,471.516510 135.000061,477.548523 
	C135.670609,480.306427 136.341171,483.064331 136.872070,486.565796 
	C137.278534,487.380341 137.684998,488.194885 138.019699,488.991760 
	C138.019699,488.991760 138.043671,488.921844 137.828247,489.641479 
	C138.250305,490.427734 138.672363,491.213989 139.021927,491.989655 
	C139.021927,491.989655 139.052322,491.923004 138.778641,492.630127 
	C139.217255,493.420166 139.655869,494.210175 140.021835,494.989136 
	C140.021835,494.989136 140.047836,494.920380 139.815567,495.653687 
	C140.575577,497.098633 141.335587,498.543549 142.021805,499.987152 
	C142.021805,499.987152 142.050125,499.919006 141.820358,500.614349 
	C142.246140,501.067596 142.671906,501.520874 143.019531,501.987061 
	C143.019531,501.987061 143.061996,501.920197 142.767807,502.598755 
	C143.210938,503.058105 143.654068,503.517456 144.019852,503.987061 
	C144.019852,503.987061 144.060699,503.920563 143.769287,504.602936 
	C144.212128,505.060272 144.654953,505.517609 145.019638,505.986908 
	C145.019638,505.986908 145.062256,505.920288 144.766541,506.597504 
	C145.210037,507.057678 145.653549,507.517853 146.018311,507.987793 
	C146.018311,507.987793 146.065460,507.923981 145.758255,508.525940 
	C146.148087,509.001465 146.537933,509.476990 147.235916,510.582336 
	C148.531097,512.433350 149.887146,514.245117 151.111588,516.141785 
	C159.211746,528.689209 169.370621,539.168762 182.321609,547.712830 
	C182.905731,547.785461 183.489853,547.858154 184.006973,547.990479 
	C184.006973,547.990479 184.041122,547.907471 183.923111,548.637939 
	C184.975922,549.074463 186.028732,549.510986 187.013489,549.979614 
	C187.013489,549.979614 187.020065,549.904663 187.065964,550.672729 
	C187.735367,550.754944 188.404770,550.837219 188.999222,550.995728 
	C188.999222,550.995728 189.061310,550.908325 188.805603,551.615417 
	C190.564529,552.395874 192.323441,553.176392 194.012482,553.979370 
	C194.012482,553.979370 194.010208,553.906006 194.119186,554.600830 
	C194.773270,554.719177 195.427353,554.837524 196.012268,554.979980 
	C196.012268,554.979980 196.013229,554.906738 196.095001,555.614868 
	C199.756943,557.061035 203.418884,558.507141 207.011826,559.978394 
	C207.011826,559.978394 207.008026,559.905029 207.145905,560.635925 
	C208.790146,561.076416 210.434387,561.516968 212.008972,561.980286 
	C212.008972,561.980286 211.997162,561.907959 212.197342,562.580811 
	C213.105164,562.704041 214.012985,562.827271 215.311630,563.642761 
	C221.290192,564.859802 227.268738,566.076843 233.960754,567.525452 
	C251.593674,568.225220 269.226593,568.924988 287.792480,569.876953 
	C302.881134,569.873352 317.969757,569.869751 333.986450,569.925842 
	C359.566345,569.947754 385.146210,569.969666 411.425598,569.957458 
	C411.648346,570.027344 411.871124,570.097168 412.734833,570.658813 
	C423.850739,570.726318 434.966614,570.793823 447.004578,570.911194 
	C452.950775,570.947205 458.900818,571.109009 464.840271,570.926758 
	C466.249390,570.883484 467.623047,569.686890 469.315948,568.860413 
	C469.315948,568.860413 469.641968,568.966248 470.399597,569.219788 
	C471.884552,568.880737 473.369476,568.541626 475.614410,567.831787 
	C480.048523,566.885437 484.482635,565.939087 489.718323,565.088379 
	C491.812988,564.360413 493.907654,563.632507 495.989685,562.977356 
	C495.989685,562.977356 495.920380,562.951843 496.719788,563.215149 
	C500.472778,561.777710 504.225800,560.340332 507.989899,558.982300 
	C507.989899,558.982300 507.927032,558.932556 508.537109,559.284973 
	C509.326935,558.897156 510.116760,558.509338 511.581757,557.816650 
	C512.306274,557.444702 513.007202,557.014771 513.758667,556.709290 
	C536.578491,547.431946 554.127319,532.045105 567.524475,510.914795 
	C567.664917,510.248932 567.805359,509.583069 567.978333,508.985687 
	C567.978333,508.985687 567.902771,508.978973 568.655457,508.920471 
	C568.744934,508.255157 568.834412,507.589813 568.986450,506.987579 
	C568.986450,506.987579 568.899902,506.967316 569.658264,506.981812 
	C569.750305,506.295319 569.842407,505.608795 569.981812,504.987610 
	C569.981812,504.987610 569.902222,504.974457 570.634583,504.947144 
	C570.737610,504.271240 570.840698,503.595306 570.979370,502.986694 
	C570.979370,502.986694 570.903564,502.979187 571.620178,502.925476 
	C571.730652,502.256409 571.841125,501.587372 571.978088,500.987030 
	C571.978088,500.987030 571.904480,500.989136 572.647156,500.862640 
	C573.079407,499.216003 573.511658,497.569366 573.977173,495.988617 
	C573.977173,495.988617 573.903748,495.996613 574.637451,495.804718 
	C574.738892,494.844360 574.840332,493.883972 574.977173,492.988708 
	C574.977173,492.988708 574.903503,492.996429 575.636292,492.804993 
	C575.738464,491.844482 575.840576,490.883972 575.977539,489.988739 
	C575.977539,489.988739 575.903870,489.995331 576.633362,489.815918 
	C576.741028,488.851837 576.848694,487.887726 576.984802,486.995483 
	C576.984802,486.995483 576.911377,487.019470 577.612793,486.655304 
	C577.736450,485.358185 577.860107,484.061096 577.948364,481.942566 
	C578.673523,477.929626 579.398682,473.916687 580.795044,469.481750 
	C581.143372,444.648529 581.491699,419.815338 581.954468,394.053345 
	C581.916748,362.041504 581.879028,330.029694 581.984863,297.088104 
	C581.966187,275.598785 582.048218,254.108536 581.847229,232.620926 
	C581.805054,228.105835 580.722717,223.600464 580.016907,218.252258 
	C579.679626,217.000320 579.167358,215.766891 579.032837,214.493530 
	C577.941956,204.174057 574.814636,194.450119 570.023621,185.325043 
	C563.302124,172.523163 554.558594,161.412079 543.481384,151.851227 
	C532.442505,142.323395 520.052307,135.536331 506.646576,130.449524 
	C497.897827,127.129837 488.814423,124.692062 479.409058,121.329414 
	C475.147949,121.216759 470.886841,121.005775 466.625732,121.006104 
	C395.600800,121.011589 324.575775,120.999260 253.551117,121.155624 
	C248.014084,121.167816 242.479752,122.401558 236.928421,122.964653 
	C236.928421,122.964653 237.024979,122.925751 236.922470,123.355247 
	C236.631027,123.421890 236.381805,123.562943 235.296677,124.023056 
	C232.719864,124.346878 230.138428,124.637848 227.566971,124.999695 
	C206.166031,128.011154 187.542969,137.050827 170.522797,150.990906 
	C170.357849,151.357941 170.192902,151.724960 170.018234,152.018768 
	C170.018234,152.018768 170.090637,152.033386 169.420029,151.973312 
	C169.294861,152.345795 169.169693,152.718277 169.016708,153.016556 
	C169.016708,153.016556 169.090530,153.045349 168.392365,152.911041 
	C168.279129,153.304291 168.165909,153.697540 168.014267,154.014221 
	C168.014267,154.014221 168.090775,154.052795 167.389771,153.873230 
	C167.276566,154.278717 167.163376,154.684219 167.014526,155.014709 
	C167.014526,155.014709 167.090027,155.049271 166.401413,154.890472 
	C166.282837,155.290298 166.164276,155.690125 166.015656,156.015640 
	C166.015656,156.015640 166.089600,156.046570 165.398972,155.899933 
	C165.281967,156.296906 165.164963,156.693863 165.016006,157.016006 
	C165.016006,157.016006 165.090927,157.047760 164.403198,156.902191 
	C164.284317,157.298416 164.165421,157.694626 164.016357,158.016357 
	C164.016357,158.016357 164.090851,158.046509 163.408813,157.909225 
	C163.287170,158.303009 163.165512,158.696793 163.016846,159.016876 
	C163.016846,159.016876 163.090652,159.043610 162.415314,158.924194 
	C162.290665,159.312973 162.166016,159.701767 162.017380,160.017365 
	C162.017380,160.017365 162.090668,160.041046 161.421844,159.937469 
	C161.294037,160.321762 161.166229,160.706039 161.019562,161.017075 
	C161.019562,161.017075 161.092316,161.037781 160.332611,160.945511 
	C159.917145,161.988220 159.501663,163.030930 158.996765,164.011734 
	C158.996765,164.011734 159.089874,164.063766 158.380829,163.811371 
	C158.271469,164.237854 158.162094,164.664352 158.014099,165.014175 
	C158.014099,165.014175 158.090622,165.053085 157.409409,164.875275 
z"/>
<path fill="#FFFFFF" opacity="1.000000" stroke="none" 
	d="
M94.591843,268.137787 
	C95.048424,307.373322 95.102493,346.793182 95.074554,386.686218 
	C94.661705,385.986267 94.043251,384.813446 94.041733,383.639832 
	C93.992683,345.693970 94.002403,307.748077 94.012299,269.802155 
	C94.012428,269.308807 94.127769,268.815430 94.591843,268.137787 
z"/>
<path fill="#A6ACB7" opacity="1.000000" stroke="none" 
	d="
M324.048370,83.897331 
	C293.233154,83.842941 262.417938,83.788544 231.328827,83.420158 
	C261.734344,83.069809 292.413757,83.033463 323.559021,83.264374 
	C324.024872,83.531639 324.048370,83.897331 324.048370,83.897331 
z"/>
<path fill="#D3D6DB" opacity="1.000000" stroke="none" 
	d="
M484.977356,83.579666 
	C457.782166,83.960388 430.381714,83.939560 402.505432,83.714218 
	C402.029572,83.509697 402.020538,83.170158 402.020538,83.170158 
	C429.604401,83.172813 457.188232,83.175461 484.977356,83.579666 
z"/>
<path fill="#BBC0C9" opacity="1.000000" stroke="none" 
	d="
M401.557556,83.084053 
	C402.020538,83.170158 402.029572,83.509697 402.041534,83.678467 
	C376.360748,83.880295 350.667969,83.913353 324.511780,83.921875 
	C324.048370,83.897331 324.024872,83.531639 324.022247,83.348434 
	C349.711273,83.109474 375.402893,83.053711 401.557556,83.084053 
z"/>
<path fill="#AEB3BD" opacity="1.000000" stroke="none" 
	d="
M95.071983,388.520447 
	C95.392067,389.463867 95.920914,390.870392 95.925484,392.278625 
	C95.985809,410.876404 95.972382,429.474457 95.756538,448.538208 
	C95.535675,449.003967 95.159279,449.003387 95.159279,449.003387 
	C95.118538,428.997040 95.077789,408.990692 95.071983,388.520447 
z"/>
<path fill="#AEB3BD" opacity="1.000000" stroke="none" 
	d="
M619.064514,275.937683 
	C619.131165,257.834961 619.197815,239.732254 619.570068,221.350189 
	C619.898315,239.061569 619.920898,257.052307 619.695374,275.504333 
	C619.447266,275.965607 619.064514,275.937683 619.064514,275.937683 
z"/>
<path fill="#AEB3BD" opacity="1.000000" stroke="none" 
	d="
M619.945068,465.476868 
	C619.571533,464.380310 619.022644,462.825287 619.018982,461.268921 
	C618.981140,445.177521 619.031189,429.085907 619.251953,412.515259 
	C619.447144,412.036163 619.828918,412.030426 619.828918,412.030426 
	C619.893555,429.692871 619.958191,447.355316 619.945068,465.476868 
z"/>
<path fill="#989FAB" opacity="1.000000" stroke="none" 
	d="
M383.526855,607.901672 
	C385.638397,607.571533 388.209717,607.075806 390.785614,607.050598 
	C400.561462,606.954834 410.338745,607.011292 420.572998,607.232544 
	C421.030457,607.454224 421.025726,607.833374 421.025726,607.833374 
	C408.680054,607.872925 396.334381,607.912537 383.526855,607.901672 
z"/>
<path fill="#B2B8C1" opacity="1.000000" stroke="none" 
	d="
M421.489502,607.891846 
	C421.025726,607.833374 421.030457,607.454224 421.044250,607.265808 
	C433.174011,607.134277 445.290009,607.191223 457.670990,607.570190 
	C445.941742,607.911560 433.947510,607.930908 421.489502,607.891846 
z"/>
<path fill="#989FAB" opacity="1.000000" stroke="none" 
	d="
M283.895874,607.100647 
	C295.367737,607.174744 306.839569,607.248840 318.620789,607.589600 
	C307.580750,607.913330 296.231323,607.970398 284.413818,607.746704 
	C283.945740,607.465942 283.895874,607.100647 283.895874,607.100647 
z"/>
<path fill="#C7C9D2" opacity="1.000000" stroke="none" 
	d="
M283.436859,607.093384 
	C283.895874,607.100647 283.945740,607.465942 283.951202,607.650208 
	C273.639282,607.898438 263.321899,607.962402 252.546692,607.959961 
	C254.281143,607.582642 256.471313,607.023743 258.666107,607.004883 
	C266.769196,606.935242 274.873810,607.044250 283.436859,607.093384 
z"/>
<path fill="#9198A6" opacity="1.000000" stroke="none" 
	d="
M619.034302,276.411682 
	C619.064514,275.937683 619.447266,275.965607 619.639160,275.968048 
	C619.878784,285.988037 619.926514,296.005585 619.920837,306.485535 
	C619.576904,302.724457 619.136719,298.504700 619.032349,294.276672 
	C618.889404,288.482971 619.001404,282.682983 619.034302,276.411682 
z"/>
<path fill="#9198A6" opacity="1.000000" stroke="none" 
	d="
M619.915833,411.566833 
	C619.828918,412.030426 619.447144,412.036163 619.257385,412.050781 
	C619.154175,403.264130 619.240784,394.462891 619.603577,385.357178 
	C619.920715,393.736206 619.961731,402.419739 619.915833,411.566833 
z"/>
<path fill="#B2B8C1" opacity="1.000000" stroke="none" 
	d="
M95.088272,449.466309 
	C95.159279,449.003387 95.535675,449.003967 95.723183,449.006287 
	C95.855682,454.801605 95.800674,460.594604 95.431755,466.659180 
	C95.084312,461.263611 95.050781,455.596405 95.088272,449.466309 
z"/>
<path fill="#D3D6DB" opacity="1.000000" stroke="none" 
	d="
M543.387451,588.075256 
	C543.854126,587.351257 544.665405,586.612000 545.847046,585.948364 
	C545.388977,586.702637 544.560547,587.381348 543.387451,588.075256 
z"/>
<path fill="#D3D6DB" opacity="1.000000" stroke="none" 
	d="
M528.339233,595.046570 
	C528.777283,594.667908 529.580444,594.241333 530.728760,593.937195 
	C530.284058,594.372620 529.494202,594.685669 528.339233,595.046570 
z"/>
<path fill="#D3D6DB" opacity="1.000000" stroke="none" 
	d="
M537.350708,591.067993 
	C537.481873,590.677551 537.943787,590.263000 538.741150,589.952576 
	C538.611572,590.385742 538.146484,590.714844 537.350708,591.067993 
z"/>
<path fill="#D3D6DB" opacity="1.000000" stroke="none" 
	d="
M539.351196,590.068726 
	C539.481995,589.676941 539.943481,589.261719 540.740723,588.951538 
	C540.611633,589.386108 540.146729,589.715637 539.351196,590.068726 
z"/>
<path fill="#D3D6DB" opacity="1.000000" stroke="none" 
	d="
M541.349609,589.067688 
	C541.483093,588.672302 541.946533,588.252563 542.743530,587.947754 
	C542.611206,588.389587 542.145386,588.716492 541.349609,589.067688 
z"/>
<path fill="#D3D6DB" opacity="1.000000" stroke="none" 
	d="
M531.363892,594.069458 
	C531.559265,593.677490 532.107483,593.262207 533.030151,592.943481 
	C532.841980,593.375366 532.279297,593.710815 531.363892,594.069458 
z"/>
<path fill="#D3D6DB" opacity="1.000000" stroke="none" 
	d="
M535.350037,592.067383 
	C535.481567,591.677490 535.943909,591.263123 536.741394,590.952515 
	C536.611328,591.385254 536.146057,591.714111 535.350037,592.067383 
z"/>
<path fill="#D3D6DB" opacity="1.000000" stroke="none" 
	d="
M534.258911,593.015198 
	C534.117004,592.661316 534.266907,592.304688 534.749878,591.996094 
	C534.905457,592.366943 534.728027,592.689636 534.258911,593.015198 
z"/>
<path fill="#D3D6DB" opacity="1.000000" stroke="none" 
	d="
M527.388550,595.713501 
	C527.373169,595.537354 527.612366,595.402527 527.962646,595.133057 
	C527.977051,595.234924 527.833496,595.487061 527.388550,595.713501 
z"/>
<path fill="#9198A6" opacity="1.000000" stroke="none" 
	d="
M619.898865,375.730164 
	C619.462158,375.795715 619.364319,375.546448 619.708984,375.128052 
	C619.854248,375.045197 619.940430,375.501678 619.898865,375.730164 
z"/>
<path fill="#000000" opacity="1.000000" stroke="none" 
	d="
M580.123901,469.903778 
	C579.398682,473.916687 578.673523,477.929626 577.621582,482.543823 
	C577.166992,484.436554 577.039185,485.728027 576.911377,487.019470 
	C576.911377,487.019470 576.984802,486.995483 576.631836,487.082581 
	C576.153931,488.111572 576.028931,489.053436 575.903870,489.995331 
	C575.903870,489.995331 575.977539,489.988739 575.623840,490.082397 
	C575.147888,491.116150 575.025696,492.056305 574.903503,492.996429 
	C574.903503,492.996429 574.977173,492.988708 574.622437,493.081482 
	C574.146362,494.115021 574.025024,495.055817 573.903748,495.996613 
	C573.903748,495.996613 573.977173,495.988617 573.617981,496.087463 
	C572.807373,497.787231 572.355896,499.388184 571.904480,500.989136 
	C571.904480,500.989136 571.978088,500.987030 571.653625,501.050079 
	C571.187317,501.735138 571.045410,502.357178 570.903564,502.979187 
	C570.903564,502.979187 570.979370,502.986694 570.652222,503.051575 
	C570.184204,503.735809 570.043213,504.355133 569.902222,504.974457 
	C569.902222,504.974457 569.981812,504.987610 569.651672,505.054810 
	C569.180969,505.737122 569.040466,506.352234 568.899902,506.967316 
	C568.899902,506.967316 568.986450,506.987579 568.649658,507.058411 
	C568.176208,507.745819 568.039490,508.362396 567.902771,508.978973 
	C567.902771,508.978973 567.978333,508.985687 567.649780,509.054871 
	C567.145325,509.746521 566.969360,510.368988 566.793335,510.991486 
	C554.127319,532.045105 536.578491,547.431946 513.758667,556.709290 
	C513.007202,557.014771 512.306274,557.444702 510.896973,557.919678 
	C509.450470,558.325928 508.688751,558.629211 507.927032,558.932556 
	C507.927032,558.932556 507.989899,558.982300 507.584045,558.978394 
	C503.425568,560.300293 499.672974,561.626099 495.920380,562.951843 
	C495.920380,562.951843 495.989685,562.977356 495.594788,562.984375 
	C493.105499,563.658569 491.011108,564.325684 488.916748,564.992798 
	C484.482635,565.939087 480.048523,566.885437 474.835449,567.955200 
	C472.584961,568.374451 471.113464,568.670349 469.641968,568.966187 
	C469.641968,568.966248 469.315948,568.860413 468.729187,568.904907 
	C465.424072,569.299927 462.714020,569.837585 459.985474,569.959351 
	C455.340485,570.166504 450.683777,570.112122 445.569214,570.076294 
	C434.102264,570.045593 423.098053,570.106323 412.093872,570.167053 
	C411.871124,570.097168 411.648346,570.027344 410.833557,569.641479 
	C384.503357,569.268127 358.765228,569.210693 332.564575,569.061951 
	C317.082794,568.951111 302.063477,568.931580 286.838593,568.523926 
	C268.837769,567.855225 251.042526,567.574524 233.247299,567.293884 
	C227.268738,566.076843 221.290192,564.859802 215.051666,562.946777 
	C213.860184,562.136475 212.928665,562.022217 211.997162,561.907959 
	C211.997162,561.907959 212.008972,561.980286 211.913834,561.624146 
	C210.215134,560.813660 208.611588,560.359314 207.008026,559.905029 
	C207.008026,559.905029 207.011826,559.978394 206.915619,559.624084 
	C203.217361,557.815430 199.615295,556.361084 196.013229,554.906738 
	C196.013229,554.906738 196.012268,554.979980 195.943695,554.659058 
	C195.253494,554.194092 194.631851,554.050049 194.010208,553.906006 
	C194.010208,553.906006 194.012482,553.979370 193.937836,553.635437 
	C192.262558,552.497070 190.661942,551.702698 189.061310,550.908325 
	C189.061310,550.908325 188.999222,550.995728 188.933731,550.652954 
	C188.252182,550.175049 187.636124,550.039856 187.020065,549.904663 
	C187.020065,549.904663 187.013489,549.979614 186.935852,549.649780 
	C185.919174,548.849121 184.980148,548.378296 184.041122,547.907471 
	C184.041122,547.907471 184.006973,547.990479 183.944153,547.659668 
	C183.279892,547.254333 182.678467,547.179810 182.077026,547.105286 
	C169.370621,539.168762 159.211746,528.689209 151.111588,516.141785 
	C149.887146,514.245117 148.531097,512.433350 147.120575,509.948608 
	C146.691971,508.851288 146.378708,508.387634 146.065460,507.923981 
	C146.065460,507.923981 146.018311,507.987793 146.025360,507.659973 
	C145.709015,506.861542 145.385635,506.390930 145.062256,505.920288 
	C145.062256,505.920288 145.019638,505.986908 145.026184,505.658142 
	C144.708725,504.859741 144.384720,504.390167 144.060699,503.920563 
	C144.060699,503.920563 144.019852,503.987061 144.024200,503.659241 
	C143.706375,502.861023 143.384186,502.390594 143.061996,501.920197 
	C143.061996,501.920197 143.019531,501.987061 143.025757,501.656372 
	C142.704712,500.856781 142.377411,500.387878 142.050125,499.919006 
	C142.050125,499.919006 142.021805,499.987152 142.020996,499.616638 
	C141.362717,497.804199 140.705276,496.362274 140.047836,494.920380 
	C140.047836,494.920380 140.021835,494.989136 140.018250,494.635620 
	C139.693878,493.495728 139.373108,492.709381 139.052322,491.923004 
	C139.052322,491.923004 139.021927,491.989655 139.016388,491.634705 
	C138.688446,490.493774 138.366058,489.707825 138.043671,488.921844 
	C138.043671,488.921844 138.019699,488.991760 138.010834,488.633240 
	C137.671875,487.457214 137.341797,486.639740 137.011719,485.822235 
	C136.341171,483.064331 135.670609,480.306427 134.926941,476.720062 
	C134.568390,470.652954 134.038010,465.414520 134.034378,460.175659 
	C133.982605,385.452484 133.945953,310.729187 134.086090,236.006210 
	C134.101028,228.037735 135.249237,220.071411 135.871704,212.104080 
	C137.254517,207.673706 138.160904,203.019852 140.113754,198.856888 
	C145.032410,188.371582 150.422989,178.107666 155.912399,167.406998 
	C156.497147,166.717484 156.793915,166.376007 157.090683,166.034531 
	C157.090683,166.034531 157.017075,166.018616 157.294586,165.992706 
	C157.744919,165.662231 157.917770,165.357651 158.090622,165.053085 
	C158.090622,165.053085 158.014099,165.014175 158.295425,164.989853 
	C158.747787,164.664948 158.918839,164.364365 159.089874,164.063766 
	C159.089874,164.063766 158.996765,164.011734 159.355148,163.938171 
	C160.173126,162.922348 160.632721,161.980072 161.092316,161.037781 
	C161.092316,161.037781 161.019562,161.017075 161.296997,160.991333 
	C161.746506,160.657394 161.918579,160.349213 162.090668,160.041046 
	C162.090668,160.041046 162.017380,160.017365 162.296570,159.991470 
	C162.747391,159.658249 162.919022,159.350922 163.090652,159.043610 
	C163.090652,159.043610 163.016846,159.016876 163.296722,158.991211 
	C163.748001,158.659210 163.919418,158.352859 164.090851,158.046509 
	C164.090851,158.046509 164.016357,158.016357 164.297104,157.990707 
	C164.748886,157.659302 164.919907,157.353531 165.090927,157.047760 
	C165.090927,157.047760 165.016006,157.016006 165.297455,156.990204 
	C165.749146,156.658463 165.919373,156.352524 166.089600,156.046570 
	C166.089600,156.046570 166.015656,156.015640 166.294098,155.987366 
	C166.745041,155.655807 166.917526,155.352539 167.090027,155.049271 
	C167.090027,155.049271 167.014526,155.014709 167.296570,154.989594 
	C167.749329,154.660583 167.920059,154.356689 168.090790,154.052795 
	C168.090775,154.052795 168.014267,154.014221 168.298065,153.988266 
	C168.751419,153.656662 168.920975,153.351013 169.090546,153.045349 
	C169.090530,153.045349 169.016708,153.016556 169.298340,152.989441 
	C169.750198,152.652664 169.920410,152.343018 170.090637,152.033386 
	C170.090637,152.033386 170.018234,152.018768 170.301514,151.987946 
	C170.787262,151.641907 170.989746,151.326691 171.192230,151.011490 
	C187.542969,137.050827 206.166031,128.011154 227.566971,124.999695 
	C230.138428,124.637848 232.719864,124.346878 235.951630,123.857269 
	C236.815384,123.474121 236.954849,123.218880 237.024979,122.925751 
	C237.024979,122.925751 236.928421,122.964653 237.397064,122.936676 
	C242.766663,122.592583 247.667465,122.004333 252.568634,122.001259 
	C323.678223,121.956573 394.787842,121.993126 465.897461,121.998917 
	C470.558624,121.999298 475.219788,121.907928 479.880951,121.859238 
	C488.814423,124.692062 497.897827,127.129837 506.646576,130.449524 
	C520.052307,135.536331 532.442505,142.323395 543.481384,151.851227 
	C554.558594,161.412079 563.302124,172.523163 570.023621,185.325043 
	C574.814636,194.450119 577.941956,204.174057 579.032837,214.493530 
	C579.167358,215.766891 579.679626,217.000320 580.004395,219.130676 
	C580.323303,243.853226 580.652344,267.697388 580.989746,291.541443 
	C581.020264,293.697540 581.103821,295.852936 581.090942,298.471924 
	C581.067200,330.953888 581.115295,362.972565 581.081726,395.454163 
	C580.657227,410.283020 580.204407,424.647461 580.008850,439.015411 
	C579.868713,449.309082 580.073120,459.607483 580.123901,469.903778 
M244.911774,385.606964 
	C249.483856,396.945984 256.328461,406.985931 264.449554,415.869476 
	C275.963379,428.464172 289.492401,438.497345 305.003510,446.180237 
	C329.792664,458.458679 355.881134,459.905487 382.195648,455.616516 
	C404.617279,451.962097 424.281464,440.987854 440.956421,425.441742 
	C461.816254,405.994080 477.044067,383.044617 479.919769,353.961975 
	C481.195923,341.055847 481.368164,327.728821 479.632996,314.919128 
	C477.662079,300.369324 471.762268,286.698822 464.085419,273.943481 
	C456.445831,261.249847 447.214569,249.634399 435.821777,240.515854 
	C416.223938,224.830200 393.126526,216.319061 368.162994,214.105133 
	C351.070129,212.589249 333.876465,213.991562 317.459320,219.373215 
	C302.727570,224.202408 289.159851,231.669449 277.535187,242.050400 
	C260.375763,257.373932 247.458054,275.681396 239.950378,297.625122 
	C234.023972,314.946991 232.739227,332.602631 234.870865,350.736481 
	C236.280014,362.724030 239.488785,374.064514 244.911774,385.606964 
M515.668579,185.963470 
	C513.173340,184.169327 510.456879,182.613174 508.223572,180.537247 
	C500.988983,173.812515 484.318970,177.395508 477.794647,183.322922 
	C471.259064,189.260574 469.706238,196.611343 470.034973,204.732529 
	C470.753662,222.488022 484.058746,234.212494 503.515564,229.173584 
	C509.845978,227.534149 514.646790,224.121002 517.960449,218.380203 
	C524.354065,207.303558 522.813904,196.821930 515.668579,185.963470 
z"/>
<path fill="#FCFCFD" opacity="1.000000" stroke="none" 
	d="
M135.543304,212.298828 
	C135.249237,220.071411 134.101028,228.037735 134.086090,236.006210 
	C133.945953,310.729187 133.982605,385.452484 134.034378,460.175659 
	C134.038010,465.414520 134.568390,470.652954 134.800781,476.337646 
	C134.168625,471.516510 133.092712,466.250031 133.085068,460.981964 
	C132.974365,384.737518 132.952759,308.492737 133.101196,232.248367 
	C133.114029,225.662094 134.478363,219.078461 135.543304,212.298828 
z"/>
<path fill="#FCFCFD" opacity="1.000000" stroke="none" 
	d="
M479.645020,121.594330 
	C475.219788,121.907928 470.558624,121.999298 465.897461,121.998917 
	C394.787842,121.993126 323.678223,121.956573 252.568634,122.001259 
	C247.667465,122.004333 242.766663,122.592583 237.404922,122.988129 
	C242.479752,122.401558 248.014084,121.167816 253.551117,121.155624 
	C324.575775,120.999260 395.600800,121.011589 466.625732,121.006104 
	C470.886841,121.005775 475.147949,121.216759 479.645020,121.594330 
z"/>
<path fill="#EFF0F2" opacity="1.000000" stroke="none" 
	d="
M581.162720,298.008636 
	C581.103821,295.852936 581.020264,293.697540 580.989746,291.541443 
	C580.652344,267.697388 580.323303,243.853226 580.055786,219.549850 
	C580.722717,223.600464 581.805054,228.105835 581.847229,232.620926 
	C582.048218,254.108536 581.966187,275.598785 581.743530,297.548950 
	C581.502136,298.009827 581.162720,298.008636 581.162720,298.008636 
z"/>
<path fill="#EFF0F2" opacity="1.000000" stroke="none" 
	d="
M580.459473,469.692749 
	C580.073120,459.607483 579.868713,449.309082 580.008850,439.015411 
	C580.204407,424.647461 580.657227,410.283020 581.250916,395.453552 
	C581.501770,394.990021 581.840027,394.982117 581.840027,394.982117 
	C581.491699,419.815338 581.143372,444.648529 580.459473,469.692749 
z"/>
<path fill="#FCFCFD" opacity="1.000000" stroke="none" 
	d="
M581.897217,394.517731 
	C581.840027,394.982117 581.501770,394.990021 581.332581,394.990662 
	C581.115295,362.972565 581.067200,330.953888 581.090942,298.471924 
	C581.162720,298.008636 581.502136,298.009827 581.671692,298.013855 
	C581.879028,330.029694 581.916748,362.041504 581.897217,394.517731 
z"/>
<path fill="#F7F7F8" opacity="1.000000" stroke="none" 
	d="
M233.604034,567.409668 
	C251.042526,567.574524 268.837769,567.855225 286.757660,568.693115 
	C286.882324,569.250427 286.859528,569.624817 286.859528,569.624817 
	C269.226593,568.924988 251.593674,568.225220 233.604034,567.409668 
z"/>
<path fill="#F7F7F8" opacity="1.000000" stroke="none" 
	d="
M333.027069,569.153320 
	C358.765228,569.210693 384.503357,569.268127 410.483826,569.658569 
	C385.146210,569.969666 359.566345,569.947754 333.505249,569.718262 
	C333.024017,569.510681 333.027069,569.153320 333.027069,569.153320 
z"/>
<path fill="#CFD2D8" opacity="1.000000" stroke="none" 
	d="
M332.564575,569.062012 
	C333.027069,569.153320 333.024017,569.510681 333.041199,569.688354 
	C317.969757,569.869751 302.881134,569.873352 287.325989,569.750854 
	C286.859528,569.624817 286.882324,569.250427 286.963257,569.081238 
	C302.063477,568.931580 317.082794,568.951111 332.564575,569.062012 
z"/>
<path fill="#AEB3BD" opacity="1.000000" stroke="none" 
	d="
M412.414368,570.412964 
	C423.098053,570.106323 434.102264,570.045593 445.575409,570.250122 
	C446.044373,570.515442 446.082520,570.861389 446.082520,570.861389 
	C434.966614,570.793823 423.850739,570.726318 412.414368,570.412964 
z"/>
<path fill="#D3D6DB" opacity="1.000000" stroke="none" 
	d="
M446.543549,570.886292 
	C446.082520,570.861389 446.044373,570.515442 446.038208,570.341553 
	C450.683777,570.112122 455.340485,570.166504 459.985474,569.959351 
	C462.714020,569.837585 465.424072,569.299927 468.577698,568.985107 
	C467.623047,569.686890 466.249390,570.883484 464.840271,570.926758 
	C458.900818,571.109009 452.950775,570.947205 446.543549,570.886292 
z"/>
<path fill="#EEEFF1" opacity="1.000000" stroke="none" 
	d="
M196.054108,555.260803 
	C199.615295,556.361084 203.217361,557.815430 206.950119,559.611572 
	C203.418884,558.507141 199.756943,557.061035 196.054108,555.260803 
z"/>
<path fill="#EFF0F2" opacity="1.000000" stroke="none" 
	d="
M496.320068,563.083496 
	C499.672974,561.626099 503.425568,560.300293 507.578491,558.938721 
	C504.225800,560.340332 500.472778,561.777710 496.320068,563.083496 
z"/>
<path fill="#EEEFF1" opacity="1.000000" stroke="none" 
	d="
M188.933472,551.261841 
	C190.661942,551.702698 192.262558,552.497070 193.972763,553.624146 
	C192.323441,553.176392 190.564529,552.395874 188.933472,551.261841 
z"/>
<path fill="#EFF0F2" opacity="1.000000" stroke="none" 
	d="
M489.317535,565.040588 
	C491.011108,564.325684 493.105499,563.658569 495.601105,562.947998 
	C493.907654,563.632507 491.812988,564.360413 489.317535,565.040588 
z"/>
<path fill="#ECEEF0" opacity="1.000000" stroke="none" 
	d="
M139.931702,495.287048 
	C140.705276,496.362274 141.362717,497.804199 142.057892,499.617310 
	C141.335587,498.543549 140.575577,497.098633 139.931702,495.287048 
z"/>
<path fill="#ECEEF0" opacity="1.000000" stroke="none" 
	d="
M572.275818,500.925903 
	C572.355896,499.388184 572.807373,497.787231 573.601318,496.054504 
	C573.511658,497.569366 573.079407,499.216003 572.275818,500.925903 
z"/>
<path fill="#EEEFF1" opacity="1.000000" stroke="none" 
	d="
M207.076965,560.270508 
	C208.611588,560.359314 210.215134,560.813660 211.948654,561.612732 
	C210.434387,561.516968 208.790146,561.076416 207.076965,560.270508 
z"/>
<path fill="#EEEFF1" opacity="1.000000" stroke="none" 
	d="
M183.982117,548.272705 
	C184.980148,548.378296 185.919174,548.849121 186.969864,549.633728 
	C186.028732,549.510986 184.975922,549.074463 183.982117,548.272705 
z"/>
<path fill="#ECEEF0" opacity="1.000000" stroke="none" 
	d="
M160.712463,160.991638 
	C160.632721,161.980072 160.173126,162.922348 159.399872,163.969131 
	C159.501663,163.030930 159.917145,161.988220 160.712463,160.991638 
z"/>
<path fill="#D3D6DB" opacity="1.000000" stroke="none" 
	d="
M470.020782,569.093018 
	C471.113464,568.670349 472.584961,568.374451 474.455444,568.140503 
	C473.369476,568.541626 471.884552,568.880737 470.020782,569.093018 
z"/>
<path fill="#ECEEF0" opacity="1.000000" stroke="none" 
	d="
M577.262085,486.837402 
	C577.039185,485.728027 577.166992,484.436554 577.639282,482.954529 
	C577.860107,484.061096 577.736450,485.358185 577.262085,486.837402 
z"/>
<path fill="#ECEEF0" opacity="1.000000" stroke="none" 
	d="
M137.935959,489.281677 
	C138.366058,489.707825 138.688446,490.493774 139.052628,491.640015 
	C138.672363,491.213989 138.250305,490.427734 137.935959,489.281677 
z"/>
<path fill="#EFF0F2" opacity="1.000000" stroke="none" 
	d="
M508.232056,559.108765 
	C508.688751,558.629211 509.450470,558.325928 510.559387,558.072021 
	C510.116760,558.509338 509.326935,558.897156 508.232056,559.108765 
z"/>
<path fill="#EEEFF1" opacity="1.000000" stroke="none" 
	d="
M212.097260,562.244385 
	C212.928665,562.022217 213.860184,562.136475 214.856247,562.600586 
	C214.012985,562.827271 213.105164,562.704041 212.097260,562.244385 
z"/>
<path fill="#ECEEF0" opacity="1.000000" stroke="none" 
	d="
M136.941895,486.194031 
	C137.341797,486.639740 137.671875,487.457214 138.046707,488.642090 
	C137.684998,488.194885 137.278534,487.380341 136.941895,486.194031 
z"/>
<path fill="#ECEEF0" opacity="1.000000" stroke="none" 
	d="
M574.270630,495.900665 
	C574.025024,495.055817 574.146362,494.115021 574.604736,493.048920 
	C574.840332,493.883972 574.738892,494.844360 574.270630,495.900665 
z"/>
<path fill="#ECEEF0" opacity="1.000000" stroke="none" 
	d="
M138.915482,492.276550 
	C139.373108,492.709381 139.693878,493.495728 140.054565,494.641174 
	C139.655869,494.210175 139.217255,493.420166 138.915482,492.276550 
z"/>
<path fill="#ECEEF0" opacity="1.000000" stroke="none" 
	d="
M575.269897,492.900696 
	C575.025696,492.056305 575.147888,491.116150 575.606445,490.049744 
	C575.840576,490.883972 575.738464,491.844482 575.269897,492.900696 
z"/>
<path fill="#ECEEF0" opacity="1.000000" stroke="none" 
	d="
M576.268616,489.905640 
	C576.028931,489.053436 576.153931,488.111572 576.617615,487.046661 
	C576.848694,487.887726 576.741028,488.851837 576.268616,489.905640 
z"/>
<path fill="#EEEFF1" opacity="1.000000" stroke="none" 
	d="
M194.064697,554.253418 
	C194.631851,554.050049 195.253494,554.194092 195.978271,554.646973 
	C195.427353,554.837524 194.773270,554.719177 194.064697,554.253418 
z"/>
<path fill="#EEEFF1" opacity="1.000000" stroke="none" 
	d="
M187.043015,550.288696 
	C187.636124,550.039856 188.252182,550.175049 188.971207,550.614868 
	C188.404770,550.837219 187.735367,550.754944 187.043015,550.288696 
z"/>
<path fill="#ECEEF0" opacity="1.000000" stroke="none" 
	d="
M571.261841,502.952332 
	C571.045410,502.357178 571.187317,501.735138 571.640381,501.015717 
	C571.841125,501.587372 571.730652,502.256409 571.261841,502.952332 
z"/>
<path fill="#ECEEF0" opacity="1.000000" stroke="none" 
	d="
M567.158936,510.953125 
	C566.969360,510.368988 567.145325,509.746521 567.633545,509.020630 
	C567.805359,509.583069 567.664917,510.248932 567.158936,510.953125 
z"/>
<path fill="#ECEEF0" opacity="1.000000" stroke="none" 
	d="
M141.935242,500.266663 
	C142.377411,500.387878 142.704712,500.856781 143.064850,501.649902 
	C142.671906,501.520874 142.246140,501.067596 141.935242,500.266663 
z"/>
<path fill="#ECEEF0" opacity="1.000000" stroke="none" 
	d="
M142.914902,502.259460 
	C143.384186,502.390594 143.706375,502.861023 144.062881,503.654114 
	C143.654068,503.517456 143.210938,503.058105 142.914902,502.259460 
z"/>
<path fill="#ECEEF0" opacity="1.000000" stroke="none" 
	d="
M570.268433,504.960815 
	C570.043213,504.355133 570.184204,503.735809 570.634399,503.017944 
	C570.840698,503.595306 570.737610,504.271240 570.268433,504.960815 
z"/>
<path fill="#ECEEF0" opacity="1.000000" stroke="none" 
	d="
M143.914993,504.261749 
	C144.384720,504.390167 144.708725,504.859741 145.065262,505.652130 
	C144.654953,505.517609 144.212128,505.060272 143.914993,504.261749 
z"/>
<path fill="#ECEEF0" opacity="1.000000" stroke="none" 
	d="
M569.279053,506.974548 
	C569.040466,506.352234 569.180969,505.737122 569.627991,505.022156 
	C569.842407,505.608795 569.750305,506.295319 569.279053,506.974548 
z"/>
<path fill="#ECEEF0" opacity="1.000000" stroke="none" 
	d="
M144.914398,506.258911 
	C145.385635,506.390930 145.709015,506.861542 146.064728,507.655090 
	C145.653549,507.517853 145.210037,507.057678 144.914398,506.258911 
z"/>
<path fill="#ECEEF0" opacity="1.000000" stroke="none" 
	d="
M568.279114,508.949707 
	C568.039490,508.362396 568.176208,507.745819 568.618408,507.026855 
	C568.834412,507.589813 568.744934,508.255157 568.279114,508.949707 
z"/>
<path fill="#ECEEF0" opacity="1.000000" stroke="none" 
	d="
M145.911850,508.224976 
	C146.378708,508.387634 146.691971,508.851288 146.966522,509.633728 
	C146.537933,509.476990 146.148087,509.001465 145.911850,508.224976 
z"/>
<path fill="#EEEFF1" opacity="1.000000" stroke="none" 
	d="
M182.199310,547.409058 
	C182.678467,547.179810 183.279892,547.254333 183.977661,547.629883 
	C183.489853,547.858154 182.905731,547.785461 182.199310,547.409058 
z"/>
<path fill="#FCFCFD" opacity="1.000000" stroke="none" 
	d="
M236.973724,123.140503 
	C236.954849,123.218880 236.815384,123.474121 236.390686,123.734940 
	C236.381805,123.562943 236.631027,123.421890 236.973724,123.140503 
z"/>
<path fill="#ECEEF0" opacity="1.000000" stroke="none" 
	d="
M170.857513,151.001190 
	C170.989746,151.326691 170.787262,151.641907 170.306366,152.024567 
	C170.192902,151.724960 170.357849,151.357941 170.857513,151.001190 
z"/>
<path fill="#ECEEF0" opacity="1.000000" stroke="none" 
	d="
M156.730988,166.004456 
	C156.793915,166.376007 156.497147,166.717484 155.837784,167.072311 
	C155.773880,166.715225 156.072586,166.344788 156.730988,166.004456 
z"/>
<path fill="#ECEEF0" opacity="1.000000" stroke="none" 
	d="
M169.755325,152.003357 
	C169.920410,152.343018 169.750198,152.652664 169.312256,153.026535 
	C169.169693,152.718277 169.294861,152.345795 169.755325,152.003357 
z"/>
<path fill="#ECEEF0" opacity="1.000000" stroke="none" 
	d="
M168.741455,152.978195 
	C168.920975,153.351013 168.751419,153.656662 168.317261,154.026550 
	C168.165909,153.697540 168.279129,153.304291 168.741455,152.978195 
z"/>
<path fill="#ECEEF0" opacity="1.000000" stroke="none" 
	d="
M167.740280,153.963013 
	C167.920059,154.356689 167.749329,154.660583 167.314392,155.027084 
	C167.163376,154.684219 167.276566,154.278717 167.740280,153.963013 
z"/>
<path fill="#ECEEF0" opacity="1.000000" stroke="none" 
	d="
M166.745712,154.969879 
	C166.917526,155.352539 166.745041,155.655807 166.309113,156.024521 
	C166.164276,155.690125 166.282837,155.290298 166.745712,154.969879 
z"/>
<path fill="#ECEEF0" opacity="1.000000" stroke="none" 
	d="
M165.744293,155.973251 
	C165.919373,156.352524 165.749146,156.658463 165.313446,157.027618 
	C165.164963,156.693863 165.281967,156.296906 165.744293,155.973251 
z"/>
<path fill="#ECEEF0" opacity="1.000000" stroke="none" 
	d="
M164.747070,156.974976 
	C164.919907,157.353531 164.748886,157.659302 164.312195,158.027954 
	C164.165421,157.694626 164.284317,157.298416 164.747070,156.974976 
z"/>
<path fill="#ECEEF0" opacity="1.000000" stroke="none" 
	d="
M163.749817,157.977875 
	C163.919418,158.352859 163.748001,158.659210 163.310226,159.028076 
	C163.165512,158.696793 163.287170,158.303009 163.749817,157.977875 
z"/>
<path fill="#ECEEF0" opacity="1.000000" stroke="none" 
	d="
M162.752991,158.983902 
	C162.919022,159.350922 162.747391,159.658249 162.308563,160.028061 
	C162.166016,159.701767 162.290665,159.312973 162.752991,158.983902 
z"/>
<path fill="#ECEEF0" opacity="1.000000" stroke="none" 
	d="
M161.756256,159.989258 
	C161.918579,160.349213 161.746506,160.657394 161.306427,161.027954 
	C161.166229,160.706039 161.294037,160.321762 161.756256,159.989258 
z"/>
<path fill="#ECEEF0" opacity="1.000000" stroke="none" 
	d="
M158.735352,163.937561 
	C158.918839,164.364365 158.747787,164.664948 158.314728,165.028198 
	C158.162094,164.664352 158.271469,164.237854 158.735352,163.937561 
z"/>
<path fill="#ECEEF0" opacity="1.000000" stroke="none" 
	d="
M157.750015,164.964172 
	C157.917770,165.357651 157.744919,165.662231 157.306229,166.028534 
	C157.163376,165.685257 157.286392,165.280273 157.750015,164.964172 
z"/>
<path fill="#798393" opacity="1.000000" stroke="none" 
	d="
M244.695068,385.291718 
	C239.488785,374.064514 236.280014,362.724030 234.870865,350.736481 
	C232.739227,332.602631 234.023972,314.946991 239.950378,297.625122 
	C247.458054,275.681396 260.375763,257.373932 277.535187,242.050400 
	C289.159851,231.669449 302.727570,224.202408 317.459320,219.373215 
	C333.876465,213.991562 351.070129,212.589249 368.162994,214.105133 
	C393.126526,216.319061 416.223938,224.830200 435.821777,240.515854 
	C447.214569,249.634399 456.445831,261.249847 464.085419,273.943481 
	C471.762268,286.698822 477.662079,300.369324 479.632996,314.919128 
	C481.368164,327.728821 481.195923,341.055847 479.919769,353.961975 
	C477.044067,383.044617 461.816254,405.994080 440.956421,425.441742 
	C424.281464,440.987854 404.617279,451.962097 382.195648,455.616516 
	C355.881134,459.905487 329.792664,458.458679 305.003510,446.180237 
	C289.492401,438.497345 275.963379,428.464172 264.449554,415.869476 
	C256.328461,406.985931 249.483856,396.945984 244.695068,385.291718 
M440.524963,350.297058 
	C440.894470,347.667786 441.743164,345.001862 441.545563,342.415924 
	C440.896973,333.929810 439.868469,325.472778 438.281738,316.687439 
	C435.545349,309.951050 433.260986,302.985229 429.981384,296.524597 
	C422.438904,281.666321 410.857849,270.585571 395.999023,263.167572 
	C389.570770,259.958405 382.676575,257.682556 375.462982,254.430161 
	C365.729889,252.200424 355.964478,251.544464 345.401398,254.155975 
	C344.813049,254.424454 344.250122,254.815796 343.632660,254.943405 
	C328.720703,258.025452 314.769196,263.729401 303.225067,273.547729 
	C288.847229,285.776093 277.988007,300.530823 275.948944,320.309601 
	C274.556030,333.820679 273.882996,347.244232 277.821838,360.446228 
	C282.101471,374.790466 290.575836,386.282654 301.622711,396.290527 
	C312.543121,406.183777 324.655334,413.373810 339.854309,416.631989 
	C342.008240,416.747589 344.162201,416.863220 346.691010,416.865601 
	C346.691010,416.865601 347.034393,417.053833 347.505768,417.758209 
	C354.945526,417.576447 362.385315,417.394653 370.671356,417.012817 
	C377.328827,415.050751 384.168060,413.554077 390.609192,411.038116 
	C408.859192,403.909515 422.254974,391.198792 430.857727,373.687653 
	C434.455872,366.363617 437.076202,358.559204 440.524963,350.297058 
z"/>
<path fill="#798393" opacity="1.000000" stroke="none" 
	d="
M515.867188,186.277222 
	C522.813904,196.821930 524.354065,207.303558 517.960449,218.380203 
	C514.646790,224.121002 509.845978,227.534149 503.515564,229.173584 
	C484.058746,234.212494 470.753662,222.488022 470.034973,204.732529 
	C469.706238,196.611343 471.259064,189.260574 477.794647,183.322922 
	C484.318970,177.395508 500.988983,173.812515 508.223572,180.537247 
	C510.456879,182.613174 513.173340,184.169327 515.867188,186.277222 
z"/>
<path fill="#000000" opacity="1.000000" stroke="none" 
	d="
M375.994049,254.982758 
	C382.676575,257.682556 389.570770,259.958405 395.999023,263.167572 
	C410.857849,270.585571 422.438904,281.666321 429.981384,296.524597 
	C433.260986,302.985229 435.545349,309.951050 438.657074,317.289246 
	C439.401978,328.918457 439.771545,339.945831 440.141144,350.973236 
	C437.076202,358.559204 434.455872,366.363617 430.857727,373.687653 
	C422.254974,391.198792 408.859192,403.909515 390.609192,411.038116 
	C384.168060,413.554077 377.328827,415.050751 369.794434,417.054138 
	C361.623138,417.081604 354.328766,417.067719 347.034393,417.053833 
	C347.034393,417.053833 346.691010,416.865601 346.266418,416.575317 
	C343.624664,416.268463 341.407532,416.251923 339.190399,416.235413 
	C324.655334,413.373810 312.543121,406.183777 301.622711,396.290527 
	C290.575836,386.282654 282.101471,374.790466 277.821838,360.446228 
	C273.882996,347.244232 274.556030,333.820679 275.948944,320.309601 
	C277.988007,300.530823 288.847229,285.776093 303.225067,273.547729 
	C314.769196,263.729401 328.720703,258.025452 343.632660,254.943405 
	C344.250122,254.815796 344.813049,254.424454 346.227081,254.045380 
	C356.699860,254.284103 366.346954,254.633438 375.994049,254.982758 
z"/>
<path fill="#ECEEF0" opacity="1.000000" stroke="none" 
	d="
M440.333069,350.635132 
	C439.771545,339.945831 439.401978,328.918457 439.009216,317.447815 
	C439.868469,325.472778 440.896973,333.929810 441.545563,342.415924 
	C441.743164,345.001862 440.894470,347.667786 440.333069,350.635132 
z"/>
<path fill="#EFF0F2" opacity="1.000000" stroke="none" 
	d="
M375.728516,254.706451 
	C366.346954,254.633438 356.699860,254.284103 346.595764,253.881561 
	C355.964478,251.544464 365.729889,252.200424 375.728516,254.706451 
z"/>
<path fill="#EFF0F2" opacity="1.000000" stroke="none" 
	d="
M347.270081,417.406006 
	C354.328766,417.067719 361.623138,417.081604 369.371277,417.154175 
	C362.385315,417.394653 354.945526,417.576447 347.270081,417.406006 
z"/>
<path fill="#EFF0F2" opacity="1.000000" stroke="none" 
	d="
M339.522339,416.433716 
	C341.407532,416.251923 343.624664,416.268463 346.078979,416.631897 
	C344.162201,416.863220 342.008240,416.747589 339.522339,416.433716 
z"/>
</svg>