<svg xmlns="http://www.w3.org/2000/svg" version="1.1" xmlns:xlink="http://www.w3.org/1999/xlink" xmlns:svgjs="http://svgjs.dev/svgjs" width="2000" height="469" viewBox="0 0 2000 469"><g transform="matrix(1,0,0,1,-1.2121212121212466,0.26789082896013383)"><svg viewBox="0 0 396 93" data-background-color="#ffffff" preserveAspectRatio="xMidYMid meet" height="469" width="2000" xmlns="http://www.w3.org/2000/svg" xmlns:xlink="http://www.w3.org/1999/xlink"><g id="tight-bounds" transform="matrix(1,0,0,1,0.2400000000000091,-0.05312120915414198)"><svg viewBox="0 0 395.52 93.10588317181035" height="93.10588317181035" width="395.52"><g><svg viewBox="0 0 551.2567418348251 129.76649929951972" height="93.10588317181035" width="395.52"><g transform="matrix(1,0,0,1,155.73674183482518,37.381256080628035)"><svg viewBox="0 0 395.52 55.00398713826366" height="55.00398713826366" width="395.52"><g id="textblocktransform"><svg viewBox="0 0 395.52 55.00398713826366" height="55.00398713826366" width="395.52" id="textblock"><g><svg viewBox="0 0 395.52 55.00398713826366" height="55.00398713826366" width="395.52"><g transform="matrix(1,0,0,1,0,0)"><svg width="395.52" viewBox="1.5 -34.3 248.78 34.599999999999994" height="55.00398713826366" data-palette-color="#f7f7f7"><path d="M13.25-34.3L13.25-34.3Q15-34.3 16.6-33.98 18.2-33.65 19.53-33.23 20.85-32.8 21.78-32.35 22.7-31.9 23.05-31.65L23.05-31.65 20.6-27.35 19.95-27.7Q19.3-28.05 18.25-28.5 17.2-28.95 15.95-29.3 14.7-29.65 13.55-29.65L13.55-29.65Q11.75-29.65 10.43-28.8 9.1-27.95 9.1-26.15L9.1-26.15Q9.1-23.9 10.55-22.48 12-21.05 15.1-19.85L15.1-19.85Q17.1-19.05 18.68-18.18 20.25-17.3 21.35-16.15 22.45-15 23.03-13.5 23.6-12 23.6-9.9L23.6-9.9Q23.6-8 22.88-6.15 22.15-4.3 20.73-2.88 19.3-1.45 17.2-0.58 15.1 0.3 12.35 0.3L12.35 0.3Q10.4 0.3 8.65-0.1 6.9-0.5 5.48-1.03 4.05-1.55 3.03-2.1 2-2.65 1.5-2.95L1.5-2.95 3.6-7.55 4.5-7.05Q5.4-6.55 6.7-5.95 8-5.35 9.45-4.85 10.9-4.35 11.95-4.35L11.95-4.35Q14.6-4.35 15.9-5.65 17.2-6.95 17.2-9.3L17.2-9.3Q17.2-10.4 16.85-11.23 16.5-12.05 15.85-12.65 15.2-13.25 14.28-13.73 13.35-14.2 12.2-14.65L12.2-14.65Q9.95-15.6 8.18-16.55 6.4-17.5 5.15-18.73 3.9-19.95 3.25-21.53 2.6-23.1 2.6-25.3L2.6-25.3Q2.6-27.15 3.4-28.78 4.2-30.4 5.6-31.63 7-32.85 8.95-33.58 10.9-34.3 13.25-34.3ZM25.85-33.85L49.45-33.85 48.7-29.35 40.3-29.35 40.3 0 34.4 0 34.4-29.35 25.85-29.35 25.85-33.85ZM53.5 0L53.5-33.85 73.59-33.85 73.59-29.35 59.45-29.35 59.45-19.9 71.09-19.9 70.34-15.35 59.45-15.35 59.45-4.5 74.34-4.5 74.34 0 53.5 0ZM103.74-13L98.14 0 93.94 0 88.29-12.85Q88.04-13.4 87.67-14.35 87.29-15.3 86.84-16.45 86.39-17.6 85.89-18.88 85.39-20.15 84.94-21.45L84.94-21.45Q84.94-20.15 84.92-18.88 84.89-17.6 84.84-16.48 84.79-15.35 84.77-14.48 84.74-13.6 84.74-13.1L84.74-13.1 84.24 0 78.64 0 80.64-33.95 85.29-33.95 93.84-12.75Q94.29-11.6 94.87-10.25 95.44-8.9 95.94-7.6L95.94-7.6Q96.44-8.9 96.99-10.23 97.54-11.55 98.04-12.75L98.04-12.75 106.64-33.95 111.19-33.95 113.19 0 107.64 0 107.09-12.95Q107.04-14.2 106.97-16.53 106.89-18.85 106.84-21.25L106.84-21.25Q106.39-20 105.92-18.75 105.44-17.5 105.04-16.4 104.64-15.3 104.29-14.4 103.94-13.5 103.74-13L103.74-13ZM119.69 0L119.69-33.85Q120.04-33.85 121.29-33.88 122.54-33.9 124.09-33.9 125.64-33.9 127.19-33.93 128.74-33.95 129.74-33.95L129.74-33.95Q135.84-33.95 138.74-31.23 141.64-28.5 141.64-23.75L141.64-23.75Q141.64-21.45 140.84-19.53 140.04-17.6 138.47-16.2 136.89-14.8 134.57-14.03 132.24-13.25 129.14-13.25L129.14-13.25 125.64-13.25 125.64 0 119.69 0ZM125.64-29.65L125.64-17.7 129.49-17.7Q132.64-17.7 133.99-19.35 135.34-21 135.34-23.55L135.34-23.55Q135.34-24.7 135.04-25.8 134.74-26.9 134.02-27.78 133.29-28.65 132.07-29.18 130.84-29.7 128.99-29.7L128.99-29.7Q127.89-29.7 127.07-29.7 126.24-29.7 125.64-29.65L125.64-29.65ZM138.19 0L151.19-33.85 155.89-33.85 168.94 0 162.59 0 159.49-8.85 147.29-8.85 144.09 0 138.19 0ZM148.89-13.25L157.94-13.25Q156.34-17.75 155.19-21.43 154.04-25.1 153.44-27.2L153.44-27.2Q152.74-24.95 151.59-21.3 150.44-17.65 148.89-13.25L148.89-13.25ZM166.19-33.85L189.79-33.85 189.04-29.35 180.64-29.35 180.64 0 174.74 0 174.74-29.35 166.19-29.35 166.19-33.85ZM213.73 0L213.73-15.4 199.78-15.4 199.78 0 193.83 0 193.83-33.85 199.78-33.85 199.78-19.75 213.73-19.75 213.73-33.85 219.68-33.85 219.68 0 213.73 0ZM233.68 0L233.68-12.95 223.18-33.85 229.63-33.85 236.73-18.5 243.98-33.85 250.28-33.85 239.63-12.7 239.63 0 233.68 0Z" opacity="1" transform="matrix(1,0,0,1,0,0)" fill="#000000" class="wordmark-text-0" data-fill-palette-color="primary" id="text-0"></path></svg></g></svg></g></svg></g></svg></g><g><svg viewBox="0 0 129.76649929951972 129.76649929951972" height="129.76649929951972" width="129.76649929951972"><g><svg></svg></g><g id="icon-0"><svg viewBox="0 0 129.76649929951972 129.76649929951972" height="129.76649929951972" width="129.76649929951972"><g><path d="M0 64.883c0-35.834 29.049-64.883 64.883-64.883 35.834 0 64.883 29.049 64.884 64.883 0 35.834-29.049 64.883-64.884 64.884-35.834 0-64.883-29.049-64.883-64.884zM64.883 124.806c33.095 0 59.923-26.828 59.923-59.923 0-33.095-26.828-59.923-59.923-59.923-33.095 0-59.923 26.828-59.923 59.923 0 33.095 26.828 59.923 59.923 59.923z" data-fill-palette-color="accent" fill="#000000" stroke="transparent"></path></g><g transform="matrix(1,0,0,1,30.658146922128473,31.15329075623029)"><svg viewBox="0 0 68.45020545526278 67.45991778705914" height="67.45991778705914" width="68.45020545526278"><g><svg xmlns="http://www.w3.org/2000/svg" xmlns:xlink="http://www.w3.org/1999/xlink" version="1.1" x="0" y="0" viewBox="1.0014627644413496 0.6748045999999994 23.997074579706283 23.649902400000002" style="enable-background:new 0 0 26 26;" xml:space="preserve" height="67.45991778705914" width="68.45020545526278" class="icon-cg-0" data-fill-palette-color="accent" id="cg-0"><g fill="#f7f7f7" data-fill-palette-color="accent"><path d="M6.152 14.333l-1.203 1.32c-0.189 0.208-0.459 0.327-0.74 0.327H2.794c-0.479 0-0.931 0.187-1.269 0.527-0.339 0.339-0.524 0.791-0.524 1.27l0.012 4.759c0.002 0.986 0.807 1.789 1.793 1.789h13.613c0.802 0 1.556-0.313 2.089-0.848l5.753-5.232c0.983-0.986 0.983-2.589-0.002-3.573-0.936-0.936-2.403-1-3.418-0.144l-4.744 4.006c-0.181 0.152-0.41 0.236-0.645 0.237h-3.922c-0.263 0-0.476-0.213-0.476-0.476s0.213-0.476 0.476-0.476h1.961c1.231 0 2.233-1.001 2.233-2.233s-1.002-2.233-2.233-2.232H8.37C7.527 13.354 6.718 13.71 6.152 14.333zM13.724 15.586c0 0.128-0.104 0.233-0.233 0.233h-1.961c-1.365 0-2.476 1.11-2.476 2.476s1.11 2.476 2.476 2.476h3.922c0.707 0 1.394-0.251 1.935-0.708l4.745-4.006c0.212-0.178 0.517-0.166 0.713 0.03 0.206 0.205 0.206 0.54 0.035 0.712l-5.752 5.231c-0.19 0.19-0.441 0.294-0.709 0.295H3.012l-0.01-4.345h1.207c0.842 0 1.65-0.357 2.218-0.98l1.203-1.32c0.188-0.208 0.458-0.326 0.74-0.326h5.121C13.62 15.354 13.724 15.458 13.724 15.586z" fill="#000000" data-fill-palette-color="accent"></path><path d="M16.876 11.662c0.317 0.189 0.711 0.186 1.028-0.004 2.432-1.485 5.486-4.323 5.486-7.251 0-2.058-1.671-3.732-3.723-3.732-0.867 0-1.682 0.293-2.332 0.817-0.651-0.519-1.473-0.817-2.325-0.817-2.053 0-3.723 1.674-3.722 3.732C11.288 7.338 14.447 10.237 16.876 11.662zM15.01 2.675c0.601 0 1.165 0.317 1.475 0.828 0.182 0.299 0.506 0.482 0.855 0.482s0.674-0.183 0.855-0.481c0.315-0.519 0.865-0.829 1.472-0.829 0.95 0 1.724 0.777 1.723 1.732 0 1.951-2.391 4.074-4.01 5.2-1.626-1.107-4.093-3.243-4.092-5.2C13.288 3.452 14.06 2.675 15.01 2.675z" fill="#000000" data-fill-palette-color="accent"></path></g></svg></g></svg></g></svg></g></svg></g></svg></g><defs></defs></svg><rect width="395.52" height="93.10588317181035" fill="none" stroke="none" visibility="hidden"></rect></g></svg></g></svg>